<?xml version="1.0" standalone="no"?>
<svg xmlns:xlink="http://www.w3.org/1999/xlink" id="wave" style="transform:rotate(0deg); transition: 0.3s" viewBox="0 0 1440 170" version="1.1" xmlns="http://www.w3.org/2000/svg"><defs><linearGradient id="sw-gradient-0" x1="0" x2="0" y1="1" y2="0"><stop stop-color="rgba(243, 106, 62, 1)" offset="0%"/><stop stop-color="rgba(255, 179, 11, 1)" offset="100%"/></linearGradient></defs><path style="transform:translate(0, 0px); opacity:1" fill="url(#sw-gradient-0)" d="M0,34L18.5,31.2C36.9,28,74,23,111,17C147.7,11,185,6,222,5.7C258.5,6,295,11,332,28.3C369.2,45,406,74,443,82.2C480,91,517,79,554,85C590.8,91,628,113,665,107.7C701.5,102,738,68,775,45.3C812.3,23,849,11,886,5.7C923.1,0,960,0,997,25.5C1033.8,51,1071,102,1108,124.7C1144.6,147,1182,142,1218,133.2C1255.4,125,1292,113,1329,116.2C1366.2,119,1403,136,1440,141.7C1476.9,147,1514,142,1551,119C1587.7,96,1625,57,1662,51C1698.5,45,1735,74,1772,90.7C1809.2,108,1846,113,1883,119C1920,125,1957,130,1994,136C2030.8,142,2068,147,2105,138.8C2141.5,130,2178,108,2215,96.3C2252.3,85,2289,85,2326,85C2363.1,85,2400,85,2437,79.3C2473.8,74,2511,62,2548,56.7C2584.6,51,2622,51,2640,51L2658.5,51L2658.5,170L2640,170C2621.5,170,2585,170,2548,170C2510.8,170,2474,170,2437,170C2400,170,2363,170,2326,170C2289.2,170,2252,170,2215,170C2178.5,170,2142,170,2105,170C2067.7,170,2031,170,1994,170C1956.9,170,1920,170,1883,170C1846.2,170,1809,170,1772,170C1735.4,170,1698,170,1662,170C1624.6,170,1588,170,1551,170C1513.8,170,1477,170,1440,170C1403.1,170,1366,170,1329,170C1292.3,170,1255,170,1218,170C1181.5,170,1145,170,1108,170C1070.8,170,1034,170,997,170C960,170,923,170,886,170C849.2,170,812,170,775,170C738.5,170,702,170,665,170C627.7,170,591,170,554,170C516.9,170,480,170,443,170C406.2,170,369,170,332,170C295.4,170,258,170,222,170C184.6,170,148,170,111,170C73.8,170,37,170,18,170L0,170Z"/></svg>